<?xml version="1.0" standalone="no"?>
<!DOCTYPE svg PUBLIC "-//W3C//DTD SVG 20010904//EN"
 "http://www.w3.org/TR/2001/REC-SVG-20010904/DTD/svg10.dtd">
<svg version="1.0" xmlns="http://www.w3.org/2000/svg"
 width="400.000000pt" height="400.000000pt" viewBox="0 0 400.000000 400.000000"
 preserveAspectRatio="xMidYMid meet">
<metadata>
Created by potrace 1.11, written by Peter Selinger 2001-2013
</metadata>
<g transform="translate(0.000000,400.000000) scale(0.100000,-0.100000)"
fill="#000000" stroke="none">
<path d="M400 3800 l0 -200 -200 0 -200 0 0 -1600 0 -1600 200 0 200 0 0 -200
0 -200 1600 0 1600 0 0 200 0 200 200 0 200 0 0 1600 0 1600 -200 0 -200 0 0
200 0 200 -1600 0 -1600 0 0 -200z m2050 -1050 l0 -150 150 0 150 0 0 -150 0
-150 300 0 300 0 0 -300 0 -300 -300 0 -300 0 0 -150 0 -150 150 0 150 0 0
-450 0 -450 -900 0 -900 0 0 150 0 150 -150 0 -150 0 0 300 0 300 -300 0 -300
0 0 450 0 450 150 0 150 0 0 -150 0 -150 150 0 150 0 0 -150 0 -150 150 0 150
0 0 300 0 300 -150 0 -150 0 0 150 0 150 150 0 150 0 0 150 0 150 600 0 600 0
0 -150z"/>
<path d="M1250 2450 l0 -150 300 0 300 0 0 -300 0 -300 -300 0 -300 0 0 -150
0 -150 300 0 300 0 0 150 0 150 150 0 150 0 0 300 0 300 -150 0 -150 0 0 150
0 150 -300 0 -300 0 0 -150z"/>
<path d="M2450 2000 l0 -300 150 0 150 0 0 300 0 300 -150 0 -150 0 0 -300z"/>
<path d="M2150 950 l0 -150 300 0 300 0 0 150 0 150 -300 0 -300 0 0 -150z"/>
</g>
</svg>
